<svg xmlns="http://www.w3.org/2000/svg" width="40" height="40" fill="none" viewBox="0 0 40 40">
  <defs>
    <linearGradient id="logoGradient" x1="0%" y1="0%" x2="100%" y2="100%">
      <stop offset="0%" style="stop-color:#3B82F6;stop-opacity:1" />
      <stop offset="50%" style="stop-color:#8B5CF6;stop-opacity:1" />
      <stop offset="100%" style="stop-color:#06B6D4;stop-opacity:1" />
    </linearGradient>
  </defs>
  
  <!-- Background Circle -->
  <circle cx="20" cy="20" r="18" fill="url(#logoGradient)" stroke="white" stroke-width="2"/>
  
  <!-- Chart/Graph Icon -->
  <g fill="white">
    <!-- Bar Chart -->
    <rect x="8" y="24" width="3" height="8" rx="1"/>
    <rect x="12" y="20" width="3" height="12" rx="1"/>
    <rect x="16" y="16" width="3" height="16" rx="1"/>
    <rect x="20" y="12" width="3" height="20" rx="1"/>
    
    <!-- Trend Line -->
    <path d="M26 26 L28 24 L30 22 L32 18" stroke="white" stroke-width="2" stroke-linecap="round" fill="none"/>
    
    <!-- Dollar Sign -->
    <path d="M28 8 C30 8 32 10 32 12 M28 8 C26 8 24 10 24 12 C24 14 26 14 28 14 C30 14 32 14 32 16 C32 18 30 20 28 20 M28 6 L28 22" stroke="white" stroke-width="1.5" stroke-linecap="round" fill="none"/>
  </g>
</svg>